<mxfile host="app.diagrams.net" modified="2020-12-02T11:49:33.902Z" agent="5.0 (Macintosh; Intel Mac OS X 10_15_5) AppleWebKit/537.36 (KHTML, like Gecko) Chrome/86.0.4240.198 Safari/537.36" etag="HCvxaS_iA6fE6UepMqks" version="13.10.4" type="github">
  <diagram name="Page-1" id="9f46799a-70d6-7492-0946-bef42562c5a5">
    <mxGraphModel dx="1121" dy="1563" grid="1" gridSize="10" guides="1" tooltips="1" connect="1" arrows="1" fold="1" page="1" pageScale="1" pageWidth="1100" pageHeight="850" background="#ffffff" math="0" shadow="0">
      <root>
        <mxCell id="0" />
        <mxCell id="1" parent="0" />
        <mxCell id="78961159f06e98e8-17" value="&lt;p class=&quot;p1&quot; style=&quot;margin: 0px ; font-weight: 400 ; font-stretch: normal ; line-height: normal ; font-family: &amp;#34;menlo&amp;#34; ; background-color: rgb(255 , 255 , 255)&quot;&gt;&lt;font style=&quot;font-size: 14px&quot; color=&quot;#ea6b66&quot;&gt;KSLiveWebViewController&lt;/font&gt;&lt;/p&gt;&lt;p class=&quot;p1&quot; style=&quot;margin: 0px ; font-weight: 400 ; font-stretch: normal ; font-size: 14px ; line-height: normal ; font-family: &amp;#34;menlo&amp;#34; ; background-color: rgb(255 , 255 , 255)&quot;&gt;&lt;br style=&quot;font-size: 14px&quot;&gt;&lt;/p&gt;" style="swimlane;html=1;fontStyle=1;align=center;verticalAlign=top;childLayout=stackLayout;horizontal=1;startSize=26;horizontalStack=0;resizeParent=1;resizeLast=0;collapsible=1;marginBottom=0;swimlaneFillColor=#ffffff;rounded=0;shadow=0;comic=0;labelBackgroundColor=none;strokeWidth=1;fillColor=none;fontFamily=Verdana;fontSize=14;" parent="1" vertex="1">
          <mxGeometry x="200" y="160" width="200" height="160" as="geometry">
            <mxRectangle x="90" y="83" width="180" height="30" as="alternateBounds" />
          </mxGeometry>
        </mxCell>
        <mxCell id="78961159f06e98e8-21" value="+&amp;nbsp;&lt;span style=&quot;background-color: rgb(255, 255, 255); font-family: menlo; font-size: 14px;&quot;&gt;webViewContext&lt;/span&gt;" style="text;html=1;strokeColor=none;fillColor=none;align=left;verticalAlign=top;spacingLeft=4;spacingRight=4;whiteSpace=wrap;overflow=hidden;rotatable=0;points=[[0,0.5],[1,0.5]];portConstraint=eastwest;fontSize=14;" parent="78961159f06e98e8-17" vertex="1">
          <mxGeometry y="26" width="200" height="34" as="geometry" />
        </mxCell>
        <mxCell id="78961159f06e98e8-19" value="" style="line;html=1;strokeWidth=1;fillColor=none;align=left;verticalAlign=middle;spacingTop=-1;spacingLeft=3;spacingRight=3;rotatable=0;labelPosition=right;points=[];portConstraint=eastwest;fontSize=14;" parent="78961159f06e98e8-17" vertex="1">
          <mxGeometry y="60" width="200" height="8" as="geometry" />
        </mxCell>
        <mxCell id="78961159f06e98e8-20" value="+&amp;nbsp;initWebViewURL：webViewContext：" style="text;strokeColor=none;fillColor=none;align=left;verticalAlign=top;spacingLeft=4;spacingRight=4;overflow=hidden;rotatable=0;points=[[0,0.5],[1,0.5]];portConstraint=eastwest;whiteSpace=wrap;fontSize=14;" parent="78961159f06e98e8-17" vertex="1">
          <mxGeometry y="68" width="200" height="40" as="geometry" />
        </mxCell>
        <mxCell id="78961159f06e98e8-27" value="+&amp;nbsp;showWebViewURL：webViewContext" style="text;strokeColor=none;fillColor=none;align=left;verticalAlign=top;spacingLeft=4;spacingRight=4;whiteSpace=wrap;overflow=hidden;rotatable=0;points=[[0,0.5],[1,0.5]];portConstraint=eastwest;fontSize=14;" parent="78961159f06e98e8-17" vertex="1">
          <mxGeometry y="108" width="200" height="40" as="geometry" />
        </mxCell>
        <mxCell id="78961159f06e98e8-30" value="&lt;p class=&quot;p1&quot; style=&quot;margin: 0px ; font-weight: 400 ; font-stretch: normal ; line-height: normal ; font-family: &amp;#34;menlo&amp;#34; ; background-color: rgb(255 , 255 , 255)&quot;&gt;&lt;font style=&quot;font-size: 14px&quot; color=&quot;#ea6b66&quot;&gt;KSLiveWebViewContext&lt;/font&gt;&lt;/p&gt;&lt;p class=&quot;p1&quot; style=&quot;margin: 0px ; font-weight: 400 ; font-stretch: normal ; font-size: 14px ; line-height: normal ; font-family: &amp;#34;menlo&amp;#34; ; background-color: rgb(255 , 255 , 255)&quot;&gt;&lt;br style=&quot;font-size: 14px&quot;&gt;&lt;/p&gt;" style="swimlane;html=1;fontStyle=1;align=center;verticalAlign=top;childLayout=stackLayout;horizontal=1;startSize=26;horizontalStack=0;resizeParent=1;resizeLast=0;collapsible=1;marginBottom=0;swimlaneFillColor=#ffffff;rounded=0;shadow=0;comic=0;labelBackgroundColor=none;strokeWidth=1;fillColor=none;fontFamily=Verdana;fontSize=14;glass=0;sketch=0;" parent="1" vertex="1">
          <mxGeometry x="440" y="166.5" width="190" height="153.5" as="geometry" />
        </mxCell>
        <mxCell id="78961159f06e98e8-31" value="+&amp;nbsp;&lt;span style=&quot;background-color: rgb(255, 255, 255); font-family: menlo; font-size: 14px;&quot;&gt;containerVC&lt;/span&gt;" style="text;html=1;strokeColor=none;fillColor=none;align=left;verticalAlign=middle;spacingLeft=4;spacingRight=4;whiteSpace=wrap;overflow=hidden;rotatable=0;points=[[0,0.5],[1,0.5]];portConstraint=eastwest;fontSize=14;fontStyle=0" parent="78961159f06e98e8-30" vertex="1">
          <mxGeometry y="26" width="190" height="34" as="geometry" />
        </mxCell>
        <mxCell id="78961159f06e98e8-32" value="+&amp;nbsp;&lt;span style=&quot;background-color: rgb(255, 255, 255); font-family: menlo; font-size: 14px;&quot;&gt;context&lt;/span&gt;" style="text;html=1;strokeColor=none;fillColor=none;align=left;verticalAlign=top;spacingLeft=4;spacingRight=4;whiteSpace=wrap;overflow=hidden;rotatable=0;points=[[0,0.5],[1,0.5]];portConstraint=eastwest;fontSize=14;" parent="78961159f06e98e8-30" vertex="1">
          <mxGeometry y="60" width="190" height="26" as="geometry" />
        </mxCell>
        <mxCell id="78961159f06e98e8-33" value="+&amp;nbsp;&lt;span style=&quot;background-color: rgb(255, 255, 255); font-family: menlo; font-size: 14px;&quot;&gt;params&lt;/span&gt;" style="text;html=1;strokeColor=none;fillColor=none;align=left;verticalAlign=top;spacingLeft=4;spacingRight=4;whiteSpace=wrap;overflow=hidden;rotatable=0;points=[[0,0.5],[1,0.5]];portConstraint=eastwest;fontSize=14;" parent="78961159f06e98e8-30" vertex="1">
          <mxGeometry y="86" width="190" height="26" as="geometry" />
        </mxCell>
        <mxCell id="78961159f06e98e8-38" value="" style="line;html=1;strokeWidth=1;fillColor=none;align=left;verticalAlign=middle;spacingTop=-1;spacingLeft=3;spacingRight=3;rotatable=0;labelPosition=right;points=[];portConstraint=eastwest;fontSize=14;" parent="78961159f06e98e8-30" vertex="1">
          <mxGeometry y="112" width="190" height="8" as="geometry" />
        </mxCell>
        <mxCell id="78961159f06e98e8-39" value="+&amp;nbsp;&lt;span style=&quot;background-color: rgb(255, 255, 255); font-family: menlo; font-size: 14px;&quot;&gt;webViewContext:&lt;/span&gt;" style="text;html=1;strokeColor=none;fillColor=none;align=left;verticalAlign=top;spacingLeft=4;spacingRight=4;whiteSpace=wrap;overflow=hidden;rotatable=0;points=[[0,0.5],[1,0.5]];portConstraint=eastwest;fontSize=14;" parent="78961159f06e98e8-30" vertex="1">
          <mxGeometry y="120" width="190" height="26" as="geometry" />
        </mxCell>
        <mxCell id="78961159f06e98e8-43" value="&lt;p class=&quot;p1&quot; style=&quot;margin: 0px ; font-weight: 400 ; font-stretch: normal ; line-height: normal ; font-family: &amp;#34;menlo&amp;#34; ; background-color: rgb(255 , 255 , 255)&quot;&gt;&lt;font style=&quot;font-size: 14px&quot; color=&quot;#ea6b66&quot;&gt;KSLiveWebParams&lt;/font&gt;&lt;/p&gt;" style="swimlane;html=1;fontStyle=1;align=center;verticalAlign=top;childLayout=stackLayout;horizontal=1;startSize=26;horizontalStack=0;resizeParent=1;resizeLast=0;collapsible=1;marginBottom=0;swimlaneFillColor=#ffffff;rounded=0;shadow=0;comic=0;labelBackgroundColor=none;strokeWidth=1;fillColor=none;fontFamily=Verdana;fontSize=14;" parent="1" vertex="1">
          <mxGeometry x="740" y="83" width="220" height="347" as="geometry" />
        </mxCell>
        <mxCell id="78961159f06e98e8-44" value="+&amp;nbsp;&lt;span style=&quot;background-color: rgb(255, 255, 255); font-family: menlo; font-size: 14px;&quot;&gt;dimAmount&lt;/span&gt;" style="text;html=1;strokeColor=none;fillColor=none;align=left;verticalAlign=top;spacingLeft=4;spacingRight=4;whiteSpace=wrap;overflow=hidden;rotatable=0;points=[[0,0.5],[1,0.5]];portConstraint=eastwest;fontSize=14;" parent="78961159f06e98e8-43" vertex="1">
          <mxGeometry y="26" width="220" height="26" as="geometry" />
        </mxCell>
        <mxCell id="78961159f06e98e8-45" value="+&amp;nbsp;&lt;span style=&quot;background-color: rgb(255, 255, 255); font-family: menlo; font-size: 14px;&quot;&gt;transparent&lt;/span&gt;" style="text;html=1;strokeColor=none;fillColor=none;align=left;verticalAlign=top;spacingLeft=4;spacingRight=4;whiteSpace=wrap;overflow=hidden;rotatable=0;points=[[0,0.5],[1,0.5]];portConstraint=eastwest;fontSize=14;" parent="78961159f06e98e8-43" vertex="1">
          <mxGeometry y="52" width="220" height="26" as="geometry" />
        </mxCell>
        <mxCell id="qpxmTX9MTAxJrdpGCSWj-21" value="+ portraitHeight" style="text;strokeColor=none;fillColor=none;align=left;verticalAlign=top;spacingLeft=4;spacingRight=4;overflow=hidden;rotatable=0;points=[[0,0.5],[1,0.5]];portConstraint=eastwest;fontSize=14;html=0;" vertex="1" parent="78961159f06e98e8-43">
          <mxGeometry y="78" width="220" height="26" as="geometry" />
        </mxCell>
        <mxCell id="qpxmTX9MTAxJrdpGCSWj-22" value="+ landscapeWidth" style="text;strokeColor=none;fillColor=none;align=left;verticalAlign=top;spacingLeft=4;spacingRight=4;overflow=hidden;rotatable=0;points=[[0,0.5],[1,0.5]];portConstraint=eastwest;fontSize=14;html=0;" vertex="1" parent="78961159f06e98e8-43">
          <mxGeometry y="104" width="220" height="26" as="geometry" />
        </mxCell>
        <mxCell id="qpxmTX9MTAxJrdpGCSWj-23" value="+ showAnimation" style="text;strokeColor=none;fillColor=none;align=left;verticalAlign=top;spacingLeft=4;spacingRight=4;overflow=hidden;rotatable=0;points=[[0,0.5],[1,0.5]];portConstraint=eastwest;fontSize=14;html=0;" vertex="1" parent="78961159f06e98e8-43">
          <mxGeometry y="130" width="220" height="26" as="geometry" />
        </mxCell>
        <mxCell id="qpxmTX9MTAxJrdpGCSWj-25" value="+ dismissAnimtion" style="text;strokeColor=none;fillColor=none;align=left;verticalAlign=top;spacingLeft=4;spacingRight=4;overflow=hidden;rotatable=0;points=[[0,0.5],[1,0.5]];portConstraint=eastwest;fontSize=14;html=0;" vertex="1" parent="78961159f06e98e8-43">
          <mxGeometry y="156" width="220" height="26" as="geometry" />
        </mxCell>
        <mxCell id="qpxmTX9MTAxJrdpGCSWj-26" value="+ enablePanDown" style="text;strokeColor=none;fillColor=none;align=left;verticalAlign=top;spacingLeft=4;spacingRight=4;overflow=hidden;rotatable=0;points=[[0,0.5],[1,0.5]];portConstraint=eastwest;fontSize=14;html=0;" vertex="1" parent="78961159f06e98e8-43">
          <mxGeometry y="182" width="220" height="26" as="geometry" />
        </mxCell>
        <mxCell id="qpxmTX9MTAxJrdpGCSWj-27" value="+ enableClickOutsideDismiss&#xa;&#xa;" style="text;strokeColor=none;fillColor=none;align=left;verticalAlign=top;spacingLeft=4;spacingRight=4;overflow=hidden;rotatable=0;points=[[0,0.5],[1,0.5]];portConstraint=eastwest;fontSize=14;html=0;" vertex="1" parent="78961159f06e98e8-43">
          <mxGeometry y="208" width="220" height="26" as="geometry" />
        </mxCell>
        <mxCell id="78961159f06e98e8-50" value="+&amp;nbsp;&lt;span style=&quot;background-color: rgb(255, 255, 255); font-family: menlo; font-size: 14px;&quot;&gt;enableMoveWithKeyboard&lt;br style=&quot;font-size: 14px;&quot;&gt;&lt;br style=&quot;font-size: 14px;&quot;&gt;&lt;/span&gt;" style="text;html=1;strokeColor=none;fillColor=none;align=left;verticalAlign=top;spacingLeft=4;spacingRight=4;whiteSpace=wrap;overflow=hidden;rotatable=0;points=[[0,0.5],[1,0.5]];portConstraint=eastwest;fontSize=14;" parent="78961159f06e98e8-43" vertex="1">
          <mxGeometry y="234" width="220" height="26" as="geometry" />
        </mxCell>
        <mxCell id="78961159f06e98e8-51" value="" style="line;html=1;strokeWidth=1;fillColor=none;align=left;verticalAlign=middle;spacingTop=-1;spacingLeft=3;spacingRight=3;rotatable=0;labelPosition=right;points=[];portConstraint=eastwest;fontSize=14;" parent="78961159f06e98e8-43" vertex="1">
          <mxGeometry y="260" width="220" height="8" as="geometry" />
        </mxCell>
        <mxCell id="78961159f06e98e8-52" value="+ method(type): type" style="text;html=1;strokeColor=none;fillColor=none;align=left;verticalAlign=top;spacingLeft=4;spacingRight=4;whiteSpace=wrap;overflow=hidden;rotatable=0;points=[[0,0.5],[1,0.5]];portConstraint=eastwest;fontSize=14;" parent="78961159f06e98e8-43" vertex="1">
          <mxGeometry y="268" width="220" height="26" as="geometry" />
        </mxCell>
        <mxCell id="78961159f06e98e8-53" value="+ method(type): type" style="text;html=1;strokeColor=none;fillColor=none;align=left;verticalAlign=top;spacingLeft=4;spacingRight=4;whiteSpace=wrap;overflow=hidden;rotatable=0;points=[[0,0.5],[1,0.5]];portConstraint=eastwest;fontSize=14;" parent="78961159f06e98e8-43" vertex="1">
          <mxGeometry y="294" width="220" height="26" as="geometry" />
        </mxCell>
        <mxCell id="78961159f06e98e8-69" value="&lt;p class=&quot;p1&quot; style=&quot;margin: 0px ; font-weight: 400 ; font-stretch: normal ; line-height: normal ; font-family: &amp;#34;menlo&amp;#34; ; background-color: rgb(255 , 255 , 255)&quot;&gt;&lt;font style=&quot;font-size: 14px&quot; color=&quot;#ea6b66&quot;&gt;YodaBaseWebViewController&lt;/font&gt;&lt;/p&gt;" style="swimlane;html=1;fontStyle=1;align=center;verticalAlign=top;childLayout=stackLayout;horizontal=1;startSize=26;horizontalStack=0;resizeParent=1;resizeLast=0;collapsible=1;marginBottom=0;swimlaneFillColor=#ffffff;rounded=0;shadow=0;comic=0;labelBackgroundColor=none;strokeWidth=1;fillColor=none;fontFamily=Verdana;fontSize=11;" parent="1" vertex="1">
          <mxGeometry x="190" y="-10" width="230" height="120" as="geometry" />
        </mxCell>
        <mxCell id="78961159f06e98e8-70" value="+ url&lt;br style=&quot;font-size: 14px;&quot;&gt;" style="text;html=1;strokeColor=none;fillColor=none;align=left;verticalAlign=top;spacingLeft=4;spacingRight=4;whiteSpace=wrap;overflow=hidden;rotatable=0;points=[[0,0.5],[1,0.5]];portConstraint=eastwest;fontSize=14;" parent="78961159f06e98e8-69" vertex="1">
          <mxGeometry y="26" width="230" height="26" as="geometry" />
        </mxCell>
        <mxCell id="78961159f06e98e8-71" value="&lt;font style=&quot;font-size: 14px;&quot;&gt;+&amp;nbsp;&lt;span style=&quot;background-color: rgb(255, 255, 255); font-family: menlo; font-size: 14px;&quot;&gt;launchObject&lt;/span&gt;&lt;/font&gt;" style="text;html=1;strokeColor=none;fillColor=none;align=left;verticalAlign=top;spacingLeft=4;spacingRight=4;whiteSpace=wrap;overflow=hidden;rotatable=0;points=[[0,0.5],[1,0.5]];portConstraint=eastwest;fontSize=14;" parent="78961159f06e98e8-69" vertex="1">
          <mxGeometry y="52" width="230" height="26" as="geometry" />
        </mxCell>
        <mxCell id="78961159f06e98e8-77" value="" style="line;html=1;strokeWidth=1;fillColor=none;align=left;verticalAlign=middle;spacingTop=-1;spacingLeft=3;spacingRight=3;rotatable=0;labelPosition=right;points=[];portConstraint=eastwest;fontSize=14;" parent="78961159f06e98e8-69" vertex="1">
          <mxGeometry y="78" width="230" height="8" as="geometry" />
        </mxCell>
        <mxCell id="78961159f06e98e8-82" value="&lt;p class=&quot;p1&quot; style=&quot;margin: 0px ; font-weight: 400 ; font-stretch: normal ; font-size: 14px ; line-height: normal ; font-family: &amp;#34;menlo&amp;#34; ; background-color: rgb(255 , 255 , 255)&quot;&gt;&lt;font color=&quot;#ea6b66&quot;&gt;KSLiveRouterWebViewHandler&lt;/font&gt;&lt;/p&gt;" style="swimlane;html=1;fontStyle=1;align=center;verticalAlign=top;childLayout=stackLayout;horizontal=1;startSize=26;horizontalStack=0;resizeParent=1;resizeLast=0;collapsible=1;marginBottom=0;swimlaneFillColor=#ffffff;rounded=0;shadow=0;comic=0;labelBackgroundColor=none;strokeWidth=1;fillColor=none;fontFamily=Verdana;fontSize=14;" parent="1" vertex="1">
          <mxGeometry x="180" y="390" width="240" height="90" as="geometry" />
        </mxCell>
        <mxCell id="78961159f06e98e8-90" value="" style="line;html=1;strokeWidth=1;fillColor=none;align=left;verticalAlign=middle;spacingTop=-1;spacingLeft=3;spacingRight=3;rotatable=0;labelPosition=right;points=[];portConstraint=eastwest;fontSize=14;" parent="78961159f06e98e8-82" vertex="1">
          <mxGeometry y="26" width="240" height="8" as="geometry" />
        </mxCell>
        <mxCell id="78961159f06e98e8-91" value="+&amp;nbsp;&lt;span style=&quot;background-color: rgb(255, 255, 255); font-family: menlo; font-size: 14px;&quot;&gt;lr_handleURL&lt;/span&gt;" style="text;html=1;strokeColor=none;fillColor=none;align=left;verticalAlign=top;spacingLeft=4;spacingRight=4;whiteSpace=wrap;overflow=hidden;rotatable=0;points=[[0,0.5],[1,0.5]];portConstraint=eastwest;fontSize=14;" parent="78961159f06e98e8-82" vertex="1">
          <mxGeometry y="34" width="240" height="30" as="geometry" />
        </mxCell>
        <mxCell id="qpxmTX9MTAxJrdpGCSWj-2" value="&lt;font style=&quot;font-size: 14px;&quot;&gt;&amp;nbsp; 继承&lt;/font&gt;" style="endArrow=open;endSize=12;dashed=1;html=1;fontSize=14;exitX=0.438;exitY=-0.013;exitDx=0;exitDy=0;exitPerimeter=0;" edge="1" parent="1" source="78961159f06e98e8-17">
          <mxGeometry width="160" relative="1" as="geometry">
            <mxPoint x="250" y="310" as="sourcePoint" />
            <mxPoint x="290" y="110" as="targetPoint" />
          </mxGeometry>
        </mxCell>
        <mxCell id="qpxmTX9MTAxJrdpGCSWj-4" value="" style="endArrow=open;endFill=1;endSize=12;html=1;fontSize=14;exitX=1;exitY=0.5;exitDx=0;exitDy=0;entryX=-0.006;entryY=0.099;entryDx=0;entryDy=0;entryPerimeter=0;" edge="1" parent="1" source="78961159f06e98e8-21" target="78961159f06e98e8-30">
          <mxGeometry width="160" relative="1" as="geometry">
            <mxPoint x="250" y="310" as="sourcePoint" />
            <mxPoint x="410" y="310" as="targetPoint" />
          </mxGeometry>
        </mxCell>
        <mxCell id="qpxmTX9MTAxJrdpGCSWj-5" value="" style="endArrow=open;endFill=1;endSize=12;html=1;fontSize=14;exitX=0.994;exitY=0.212;exitDx=0;exitDy=0;exitPerimeter=0;entryX=-0.006;entryY=0.036;entryDx=0;entryDy=0;entryPerimeter=0;" edge="1" parent="1" source="78961159f06e98e8-33" target="78961159f06e98e8-43">
          <mxGeometry width="160" relative="1" as="geometry">
            <mxPoint x="250" y="310" as="sourcePoint" />
            <mxPoint x="410" y="310" as="targetPoint" />
          </mxGeometry>
        </mxCell>
        <mxCell id="qpxmTX9MTAxJrdpGCSWj-9" value="调用" style="html=1;verticalAlign=bottom;startArrow=oval;startFill=1;endArrow=block;startSize=8;fontSize=14;exitX=0.438;exitY=-0.056;exitDx=0;exitDy=0;exitPerimeter=0;" edge="1" parent="1" source="78961159f06e98e8-82">
          <mxGeometry width="60" relative="1" as="geometry">
            <mxPoint x="380" y="340" as="sourcePoint" />
            <mxPoint x="282" y="320" as="targetPoint" />
          </mxGeometry>
        </mxCell>
      </root>
    </mxGraphModel>
  </diagram>
</mxfile>
